<?xml version="1.0" encoding="UTF-8" standalone="no"?><!-- Generator: Gravit.io --><svg xmlns="http://www.w3.org/2000/svg" xmlns:xlink="http://www.w3.org/1999/xlink" style="isolation:isolate" viewBox="0 0 247 383" width="247pt" height="383pt"><defs><clipPath id="_clipPath_m4QAO7BoPOkLKpiDUwdUMPuWJTKlzCJZ"><rect width="247" height="383"/></clipPath></defs><g clip-path="url(#_clipPath_m4QAO7BoPOkLKpiDUwdUMPuWJTKlzCJZ)"><g><path d=" M 134.116 324.241 C 134.116 324.241 84.116 324.241 84.116 324.241 C 78.116 324.241 72.116 330.241 72.116 336.241 C 72.116 336.241 72.116 348.241 72.116 348.241 C 72.116 354.241 78.116 360.241 84.116 360.241 C 84.116 360.241 134.116 360.241 134.116 360.241 C 140.116 360.241 146.116 354.241 146.116 348.241 C 146.116 348.241 146.116 336.241 146.116 336.241 C 146.116 330.241 140.116 324.241 134.116 324.241 Z " fill="none" vector-effect="non-scaling-stroke" stroke-width="2" stroke-dasharray="0,0" stroke="rgb(86,216,123)" stroke-linejoin="miter" stroke-linecap="butt" stroke-miterlimit="4"/><g clip-path="url(#_clipPath_S4DLCID9YfzjorApc0Q6rszWeDZO7UyC)"><text transform="matrix(1,0,0,1,83.666,344.741)" style="font-family:'Sansita';font-weight:400;font-size:10px;font-style:normal;font-variant-ligatures:none;fill:[Object GRGBColor];stroke:none;">draw_graph</text></g><defs><clipPath id="_clipPath_S4DLCID9YfzjorApc0Q6rszWeDZO7UyC"><rect x="0" y="0" width="53" height="12.2" transform="matrix(1,0,0,1,83.666,334.541)"/></clipPath></defs></g><g><mask id="_mask_yxzlL0AsBYxrLT0qCFzU320JadofeAE7" x="-200%" y="-200%" width="400%" height="400%"><rect x="-200%" y="-200%" width="400%" height="400%" style="fill:white;"/><path d=" M 135.616 252.241 C 135.616 252.241 82.616 252.241 82.616 252.241 C 76.616 252.241 70.616 258.241 70.616 264.241 C 70.616 264.241 70.616 276.241 70.616 276.241 C 70.616 282.241 76.616 288.241 82.616 288.241 C 82.616 288.241 135.616 288.241 135.616 288.241 C 141.616 288.241 147.616 282.241 147.616 276.241 C 147.616 276.241 147.616 264.241 147.616 264.241 C 147.616 258.241 141.616 252.241 135.616 252.241 Z " fill="black" stroke="none"/></mask><path d=" M 135.616 252.241 C 135.616 252.241 82.616 252.241 82.616 252.241 C 76.616 252.241 70.616 258.241 70.616 264.241 C 70.616 264.241 70.616 276.241 70.616 276.241 C 70.616 282.241 76.616 288.241 82.616 288.241 C 82.616 288.241 135.616 288.241 135.616 288.241 C 141.616 288.241 147.616 282.241 147.616 276.241 C 147.616 276.241 147.616 264.241 147.616 264.241 C 147.616 258.241 141.616 252.241 135.616 252.241 Z " fill="none"/><path d=" M 135.616 252.241 C 135.616 252.241 82.616 252.241 82.616 252.241 C 76.616 252.241 70.616 258.241 70.616 264.241 C 70.616 264.241 70.616 276.241 70.616 276.241 C 70.616 282.241 76.616 288.241 82.616 288.241 C 82.616 288.241 135.616 288.241 135.616 288.241 C 141.616 288.241 147.616 282.241 147.616 276.241 C 147.616 276.241 147.616 264.241 147.616 264.241 C 147.616 258.241 141.616 252.241 135.616 252.241 Z " fill="none" mask="url(#_mask_yxzlL0AsBYxrLT0qCFzU320JadofeAE7)" vector-effect="non-scaling-stroke" stroke-width="4" stroke-dasharray="0,0" stroke="rgb(120,216,86)" stroke-linejoin="miter" stroke-linecap="butt" stroke-miterlimit="4"/><g clip-path="url(#_clipPath_Eeio8xDnSZvoXPLPEUCNV1Ay63zkyMNr)"><text transform="matrix(1,0,0,1,83.581,272.741)" style="font-family:'Sansita';font-weight:400;font-size:10px;font-style:normal;font-variant-ligatures:none;fill:[Object GRGBColor];stroke:none;">get_network</text></g><defs><clipPath id="_clipPath_Eeio8xDnSZvoXPLPEUCNV1Ay63zkyMNr"><rect x="0" y="0" width="54" height="12.2" transform="matrix(1,0,0,1,83.581,262.541)"/></clipPath></defs></g><g><mask id="_mask_UucSWD2iokNi3Mm4Ki6FV9oZtNnq6s7a" x="-200%" y="-200%" width="400%" height="400%"><rect x="-200%" y="-200%" width="400%" height="400%" style="fill:white;"/><path d=" M 109.116 288.544 C 109.116 296.258 109.116 305.529 109.116 314.129" fill="black" stroke="none"/></mask><path d=" M 109.116 288.544 C 109.116 296.258 109.116 305.529 109.116 314.129" fill="none"/><path d=" M 109.116 288.544 C 109.116 296.258 109.116 305.529 109.116 314.129" fill="none" mask="url(#_mask_UucSWD2iokNi3Mm4Ki6FV9oZtNnq6s7a)" vector-effect="non-scaling-stroke" stroke-width="4" stroke="rgb(128,128,128)" stroke-linejoin="miter" stroke-linecap="butt" stroke-miterlimit="4"/><mask id="_mask_8cwkcQSpr2DTxPj66MGemqwtSeq0PRai" x="-200%" y="-200%" width="400%" height="400%"><rect x="-200%" y="-200%" width="400%" height="400%" style="fill:white;"/><path d=" M 112.616 314.137 L 109.116 324.137 L 105.616 314.137 L 112.616 314.137 L 112.616 314.137 Z " fill="black" stroke="none"/></mask><path d=" M 112.616 314.137 L 109.116 324.137 L 105.616 314.137 L 112.616 314.137 L 112.616 314.137 Z " fill="rgb(128,128,128)"/><path d=" M 112.616 314.137 L 109.116 324.137 L 105.616 314.137 L 112.616 314.137 L 112.616 314.137 Z " fill="rgb(128,128,128)" mask="url(#_mask_8cwkcQSpr2DTxPj66MGemqwtSeq0PRai)" vector-effect="non-scaling-stroke" stroke-width="4" stroke="rgb(128,128,128)" stroke-linejoin="miter" stroke-linecap="butt" stroke-miterlimit="4"/></g><g><mask id="_mask_n3qDx1cRGU9UEZRGVXkFcZmD28eoeG3n" x="-200%" y="-200%" width="400%" height="400%"><rect x="-200%" y="-200%" width="400%" height="400%" style="fill:white;"/><path d=" M 87.616 180.241 C 87.616 180.241 44.616 180.241 44.616 180.241 C 38.616 180.241 32.616 186.241 32.616 192.241 C 32.616 192.241 32.616 204.241 32.616 204.241 C 32.616 210.241 38.616 216.241 44.616 216.241 C 44.616 216.241 87.616 216.241 87.616 216.241 C 93.616 216.241 99.616 210.241 99.616 204.241 C 99.616 204.241 99.616 192.241 99.616 192.241 C 99.616 186.241 93.616 180.241 87.616 180.241 Z " fill="black" stroke="none"/></mask><path d=" M 87.616 180.241 C 87.616 180.241 44.616 180.241 44.616 180.241 C 38.616 180.241 32.616 186.241 32.616 192.241 C 32.616 192.241 32.616 204.241 32.616 204.241 C 32.616 210.241 38.616 216.241 44.616 216.241 C 44.616 216.241 87.616 216.241 87.616 216.241 C 93.616 216.241 99.616 210.241 99.616 204.241 C 99.616 204.241 99.616 192.241 99.616 192.241 C 99.616 186.241 93.616 180.241 87.616 180.241 Z " fill="none"/><path d=" M 87.616 180.241 C 87.616 180.241 44.616 180.241 44.616 180.241 C 38.616 180.241 32.616 186.241 32.616 192.241 C 32.616 192.241 32.616 204.241 32.616 204.241 C 32.616 210.241 38.616 216.241 44.616 216.241 C 44.616 216.241 87.616 216.241 87.616 216.241 C 93.616 216.241 99.616 210.241 99.616 204.241 C 99.616 204.241 99.616 192.241 99.616 192.241 C 99.616 186.241 93.616 180.241 87.616 180.241 Z " fill="none" mask="url(#_mask_n3qDx1cRGU9UEZRGVXkFcZmD28eoeG3n)" vector-effect="non-scaling-stroke" stroke-width="4" stroke-dasharray="0,0" stroke="rgb(86,216,201)" stroke-linejoin="miter" stroke-linecap="butt" stroke-miterlimit="4"/><g clip-path="url(#_clipPath_EktBzsmJ1j7F8tQnij1SbN8MDzOi7p8B)"><text transform="matrix(1,0,0,1,44.651,200.741)" style="font-family:'Sansita';font-weight:400;font-size:10px;font-style:normal;font-variant-ligatures:none;fill:[Object GRGBColor];stroke:none;">mash_dist</text></g><defs><clipPath id="_clipPath_EktBzsmJ1j7F8tQnij1SbN8MDzOi7p8B"><rect x="0" y="0" width="45" height="12" transform="matrix(1,0,0,1,44.651,190.541)"/></clipPath></defs></g><g><mask id="_mask_9Qpicq1TYqkrnEipseBrmYL5fbmJ7R9t" x="-200%" y="-200%" width="400%" height="400%"><rect x="-200%" y="-200%" width="400%" height="400%" style="fill:white;"/><path d=" M 76.745 216.544 C 81.744 224.682 87.807 234.552 93.328 243.54" fill="black" stroke="none"/></mask><path d=" M 76.745 216.544 C 81.744 224.682 87.807 234.552 93.328 243.54" fill="none"/><path d=" M 76.745 216.544 C 81.744 224.682 87.807 234.552 93.328 243.54" fill="none" mask="url(#_mask_9Qpicq1TYqkrnEipseBrmYL5fbmJ7R9t)" vector-effect="non-scaling-stroke" stroke-width="4" stroke="rgb(128,128,128)" stroke-linejoin="miter" stroke-linecap="butt" stroke-miterlimit="4"/><mask id="_mask_iTOrDWRTJihu6WMiETKUQxjrbGzSBqsq" x="-200%" y="-200%" width="400%" height="400%"><rect x="-200%" y="-200%" width="400%" height="400%" style="fill:white;"/><path d=" M 96.357 241.784 L 98.609 252.137 L 90.393 245.448 L 96.357 241.784 L 96.357 241.784 Z " fill="black" stroke="none"/></mask><path d=" M 96.357 241.784 L 98.609 252.137 L 90.393 245.448 L 96.357 241.784 L 96.357 241.784 Z " fill="rgb(128,128,128)"/><path d=" M 96.357 241.784 L 98.609 252.137 L 90.393 245.448 L 96.357 241.784 L 96.357 241.784 Z " fill="rgb(128,128,128)" mask="url(#_mask_iTOrDWRTJihu6WMiETKUQxjrbGzSBqsq)" vector-effect="non-scaling-stroke" stroke-width="4" stroke="rgb(128,128,128)" stroke-linejoin="miter" stroke-linecap="butt" stroke-miterlimit="4"/></g><g><mask id="_mask_9g2fK8bLY0X5BO8xr7lndvCVAMvOaszW" x="-200%" y="-200%" width="400%" height="400%"><rect x="-200%" y="-200%" width="400%" height="400%" style="fill:white;"/><path d=" M 174.116 180.241 C 174.116 180.241 130.116 180.241 130.116 180.241 C 124.116 180.241 118.116 186.241 118.116 192.241 C 118.116 192.241 118.116 204.241 118.116 204.241 C 118.116 210.241 124.116 216.241 130.116 216.241 C 130.116 216.241 174.116 216.241 174.116 216.241 C 180.116 216.241 186.116 210.241 186.116 204.241 C 186.116 204.241 186.116 192.241 186.116 192.241 C 186.116 186.241 180.116 180.241 174.116 180.241 Z " fill="black" stroke="none"/></mask><path d=" M 174.116 180.241 C 174.116 180.241 130.116 180.241 130.116 180.241 C 124.116 180.241 118.116 186.241 118.116 192.241 C 118.116 192.241 118.116 204.241 118.116 204.241 C 118.116 210.241 124.116 216.241 130.116 216.241 C 130.116 216.241 174.116 216.241 174.116 216.241 C 180.116 216.241 186.116 210.241 186.116 204.241 C 186.116 204.241 186.116 192.241 186.116 192.241 C 186.116 186.241 180.116 180.241 174.116 180.241 Z " fill="none"/><path d=" M 174.116 180.241 C 174.116 180.241 130.116 180.241 130.116 180.241 C 124.116 180.241 118.116 186.241 118.116 192.241 C 118.116 192.241 118.116 204.241 118.116 204.241 C 118.116 210.241 124.116 216.241 130.116 216.241 C 130.116 216.241 174.116 216.241 174.116 216.241 C 180.116 216.241 186.116 210.241 186.116 204.241 C 186.116 204.241 186.116 192.241 186.116 192.241 C 186.116 186.241 180.116 180.241 174.116 180.241 Z " fill="none" mask="url(#_mask_9g2fK8bLY0X5BO8xr7lndvCVAMvOaszW)" vector-effect="non-scaling-stroke" stroke-width="4" stroke-dasharray="0,0" stroke="rgb(198,216,86)" stroke-linejoin="miter" stroke-linecap="butt" stroke-miterlimit="4"/><g clip-path="url(#_clipPath_Q9B0KHvAGX3rwzstScOgwrSXVXgJmNDu)"><text transform="matrix(1,0,0,1,130.346,200.741)" style="font-family:'Sansita';font-weight:400;font-size:10px;font-style:normal;font-variant-ligatures:none;fill:[Object GRGBColor];stroke:none;">annot_dict</text></g><defs><clipPath id="_clipPath_Q9B0KHvAGX3rwzstScOgwrSXVXgJmNDu"><rect x="0" y="0" width="46" height="12" transform="matrix(1,0,0,1,130.346,190.541)"/></clipPath></defs></g><g><mask id="_mask_hVbM2Gq2cHpNH04ijZDZAggBXHDsIxd4" x="-200%" y="-200%" width="400%" height="400%"><rect x="-200%" y="-200%" width="400%" height="400%" style="fill:white;"/><path d=" M 141.487 216.544 C 136.488 224.682 130.425 234.552 124.904 243.54" fill="black" stroke="none"/></mask><path d=" M 141.487 216.544 C 136.488 224.682 130.425 234.552 124.904 243.54" fill="none"/><path d=" M 141.487 216.544 C 136.488 224.682 130.425 234.552 124.904 243.54" fill="none" mask="url(#_mask_hVbM2Gq2cHpNH04ijZDZAggBXHDsIxd4)" vector-effect="non-scaling-stroke" stroke-width="4" stroke="rgb(128,128,128)" stroke-linejoin="miter" stroke-linecap="butt" stroke-miterlimit="4"/><mask id="_mask_UazSvlOF8OufruVFdaVNVJ6GT5lyBOXn" x="-200%" y="-200%" width="400%" height="400%"><rect x="-200%" y="-200%" width="400%" height="400%" style="fill:white;"/><path d=" M 127.839 245.448 L 119.623 252.137 L 121.875 241.784 L 127.839 245.448 L 127.839 245.448 Z " fill="black" stroke="none"/></mask><path d=" M 127.839 245.448 L 119.623 252.137 L 121.875 241.784 L 127.839 245.448 L 127.839 245.448 Z " fill="rgb(128,128,128)"/><path d=" M 127.839 245.448 L 119.623 252.137 L 121.875 241.784 L 127.839 245.448 L 127.839 245.448 Z " fill="rgb(128,128,128)" mask="url(#_mask_UazSvlOF8OufruVFdaVNVJ6GT5lyBOXn)" vector-effect="non-scaling-stroke" stroke-width="4" stroke="rgb(128,128,128)" stroke-linejoin="miter" stroke-linecap="butt" stroke-miterlimit="4"/></g><g><mask id="_mask_lK6Gudt377ELcJ9WzztGHOXruK3Bch8d" x="-200%" y="-200%" width="400%" height="400%"><rect x="-200%" y="-200%" width="400%" height="400%" style="fill:white;"/><path d=" M 175.818 119.241 C 172.768 129.958 169.068 142.957 165.699 154.793" fill="black" stroke="none"/></mask><path d=" M 175.818 119.241 C 172.768 129.958 169.068 142.957 165.699 154.793" fill="none"/><path d=" M 175.818 119.241 C 172.768 129.958 169.068 142.957 165.699 154.793" fill="none" mask="url(#_mask_lK6Gudt377ELcJ9WzztGHOXruK3Bch8d)" vector-effect="non-scaling-stroke" stroke-width="4" stroke="rgb(128,128,128)" stroke-linejoin="miter" stroke-linecap="butt" stroke-miterlimit="4"/><mask id="_mask_nWyTBm3GHD04bFFgl5KbHFXz5CLj52N0" x="-200%" y="-200%" width="400%" height="400%"><rect x="-200%" y="-200%" width="400%" height="400%" style="fill:white;"/><path d=" M 169.437 156.177 L 162.477 166.115 L 161.905 153.61 L 169.437 156.177 L 169.437 156.177 Z " fill="black" stroke="none"/></mask><path d=" M 169.437 156.177 L 162.477 166.115 L 161.905 153.61 L 169.437 156.177 L 169.437 156.177 Z " fill="rgb(128,128,128)"/><path d=" M 169.437 156.177 L 162.477 166.115 L 161.905 153.61 L 169.437 156.177 L 169.437 156.177 Z " fill="rgb(128,128,128)" mask="url(#_mask_nWyTBm3GHD04bFFgl5KbHFXz5CLj52N0)" vector-effect="non-scaling-stroke" stroke-width="4" stroke="rgb(128,128,128)" stroke-linejoin="miter" stroke-linecap="butt" stroke-miterlimit="4"/></g><g><mask id="_mask_KWCbyMiYQdOq5FKZGXZjZjiE5wimPfDv" x="-200%" y="-200%" width="400%" height="400%"><rect x="-200%" y="-200%" width="400%" height="400%" style="fill:white;"/><path d=" M 152.116 75.241 C 141.728 71.654 129.128 67.304 117.655 63.342" fill="black" stroke="none"/></mask><path d=" M 152.116 75.241 C 141.728 71.654 129.128 67.304 117.655 63.342" fill="none"/><path d=" M 152.116 75.241 C 141.728 71.654 129.128 67.304 117.655 63.342" fill="none" mask="url(#_mask_KWCbyMiYQdOq5FKZGXZjZjiE5wimPfDv)" vector-effect="non-scaling-stroke" stroke-width="4" stroke="rgb(128,128,128)" stroke-linejoin="miter" stroke-linecap="butt" stroke-miterlimit="4"/><mask id="_mask_1ga6hDQaFOEQ5KEzinFz27F0qN2ZgAB9" x="-200%" y="-200%" width="400%" height="400%"><rect x="-200%" y="-200%" width="400%" height="400%" style="fill:white;"/><path d=" M 116.525 67.383 L 106.681 59.553 L 118.591 59.235 L 116.525 67.383 L 116.525 67.383 Z " fill="black" stroke="none"/></mask><path d=" M 116.525 67.383 L 106.681 59.553 L 118.591 59.235 L 116.525 67.383 L 116.525 67.383 Z " fill="rgb(128,128,128)"/><path d=" M 116.525 67.383 L 106.681 59.553 L 118.591 59.235 L 116.525 67.383 L 116.525 67.383 Z " fill="rgb(128,128,128)" mask="url(#_mask_1ga6hDQaFOEQ5KEzinFz27F0qN2ZgAB9)" vector-effect="non-scaling-stroke" stroke-width="4" stroke="rgb(128,128,128)" stroke-linejoin="miter" stroke-linecap="butt" stroke-miterlimit="4"/></g><g><mask id="_mask_CkwxBHTe0YBcs0q0d9xOhK8kFjpBxoyh" x="-200%" y="-200%" width="400%" height="400%"><rect x="-200%" y="-200%" width="400%" height="400%" style="fill:white;"/><path d=" M 119.116 108.241 C 119.116 108.241 75.116 108.241 75.116 108.241 C 69.116 108.241 63.116 114.241 63.116 120.241 C 63.116 120.241 63.116 132.241 63.116 132.241 C 63.116 138.241 69.116 144.241 75.116 144.241 C 75.116 144.241 119.116 144.241 119.116 144.241 C 125.116 144.241 131.116 138.241 131.116 132.241 C 131.116 132.241 131.116 120.241 131.116 120.241 C 131.116 114.241 125.116 108.241 119.116 108.241 Z " fill="black" stroke="none"/></mask><path d=" M 119.116 108.241 C 119.116 108.241 75.116 108.241 75.116 108.241 C 69.116 108.241 63.116 114.241 63.116 120.241 C 63.116 120.241 63.116 132.241 63.116 132.241 C 63.116 138.241 69.116 144.241 75.116 144.241 C 75.116 144.241 119.116 144.241 119.116 144.241 C 125.116 144.241 131.116 138.241 131.116 132.241 C 131.116 132.241 131.116 120.241 131.116 120.241 C 131.116 114.241 125.116 108.241 119.116 108.241 Z " fill="none"/><path d=" M 119.116 108.241 C 119.116 108.241 75.116 108.241 75.116 108.241 C 69.116 108.241 63.116 114.241 63.116 120.241 C 63.116 120.241 63.116 132.241 63.116 132.241 C 63.116 138.241 69.116 144.241 75.116 144.241 C 75.116 144.241 119.116 144.241 119.116 144.241 C 125.116 144.241 131.116 138.241 131.116 132.241 C 131.116 132.241 131.116 120.241 131.116 120.241 C 131.116 114.241 125.116 108.241 119.116 108.241 Z " fill="none" mask="url(#_mask_CkwxBHTe0YBcs0q0d9xOhK8kFjpBxoyh)" vector-effect="non-scaling-stroke" stroke-width="4" stroke-dasharray="0,0" stroke="rgb(216,164,86)" stroke-linejoin="miter" stroke-linecap="butt" stroke-miterlimit="4"/><g clip-path="url(#_clipPath_eVgZJ2mP23v15dgN25MsCRawvafIdUxc)"><text transform="matrix(1,0,0,1,75.536,128.741)" style="font-family:'Sansita';font-weight:400;font-size:10px;font-style:normal;font-variant-ligatures:none;fill:[Object GRGBColor];stroke:none;">ref_sketch</text></g><defs><clipPath id="_clipPath_eVgZJ2mP23v15dgN25MsCRawvafIdUxc"><rect x="0" y="0" width="46" height="12" transform="matrix(1,0,0,1,75.536,118.541)"/></clipPath></defs></g><g><mask id="_mask_6vTb7SeoMXdgADDui3VnFXZxmBPEgE2q" x="-200%" y="-200%" width="400%" height="400%"><rect x="-200%" y="-200%" width="400%" height="400%" style="fill:white;"/><path d=" M 89.453 144.544 C 85.924 152.513 81.66 162.141 77.747 170.977" fill="black" stroke="none"/></mask><path d=" M 89.453 144.544 C 85.924 152.513 81.66 162.141 77.747 170.977" fill="none"/><path d=" M 89.453 144.544 C 85.924 152.513 81.66 162.141 77.747 170.977" fill="none" mask="url(#_mask_6vTb7SeoMXdgADDui3VnFXZxmBPEgE2q)" vector-effect="non-scaling-stroke" stroke-width="4" stroke="rgb(128,128,128)" stroke-linejoin="miter" stroke-linecap="butt" stroke-miterlimit="4"/><mask id="_mask_WG0ZyqnYx6ZkWUJbzVfk4U05Oz1jaE0w" x="-200%" y="-200%" width="400%" height="400%"><rect x="-200%" y="-200%" width="400%" height="400%" style="fill:white;"/><path d=" M 80.94 172.41 L 73.691 180.137 L 74.54 169.576 L 80.94 172.41 L 80.94 172.41 Z " fill="black" stroke="none"/></mask><path d=" M 80.94 172.41 L 73.691 180.137 L 74.54 169.576 L 80.94 172.41 L 80.94 172.41 Z " fill="rgb(128,128,128)"/><path d=" M 80.94 172.41 L 73.691 180.137 L 74.54 169.576 L 80.94 172.41 L 80.94 172.41 Z " fill="rgb(128,128,128)" mask="url(#_mask_WG0ZyqnYx6ZkWUJbzVfk4U05Oz1jaE0w)" vector-effect="non-scaling-stroke" stroke-width="4" stroke="rgb(128,128,128)" stroke-linejoin="miter" stroke-linecap="butt" stroke-miterlimit="4"/></g><g><mask id="_mask_8koKbBhqNIrOJcmVogKid703T5VuTlqI" x="-200%" y="-200%" width="400%" height="400%"><rect x="-200%" y="-200%" width="400%" height="400%" style="fill:white;"/><path d=" M 85.116 36.241 C 85.116 36.241 47.116 36.241 47.116 36.241 C 41.116 36.241 35.116 42.241 35.116 48.241 C 35.116 48.241 35.116 60.241 35.116 60.241 C 35.116 66.241 41.116 72.241 47.116 72.241 C 47.116 72.241 85.116 72.241 85.116 72.241 C 91.116 72.241 97.116 66.241 97.116 60.241 C 97.116 60.241 97.116 48.241 97.116 48.241 C 97.116 42.241 91.116 36.241 85.116 36.241 Z " fill="black" stroke="none"/></mask><path d=" M 85.116 36.241 C 85.116 36.241 47.116 36.241 47.116 36.241 C 41.116 36.241 35.116 42.241 35.116 48.241 C 35.116 48.241 35.116 60.241 35.116 60.241 C 35.116 66.241 41.116 72.241 47.116 72.241 C 47.116 72.241 85.116 72.241 85.116 72.241 C 91.116 72.241 97.116 66.241 97.116 60.241 C 97.116 60.241 97.116 48.241 97.116 48.241 C 97.116 42.241 91.116 36.241 85.116 36.241 Z " fill="none"/><path d=" M 85.116 36.241 C 85.116 36.241 47.116 36.241 47.116 36.241 C 41.116 36.241 35.116 42.241 35.116 48.241 C 35.116 48.241 35.116 60.241 35.116 60.241 C 35.116 66.241 41.116 72.241 47.116 72.241 C 47.116 72.241 85.116 72.241 85.116 72.241 C 91.116 72.241 97.116 66.241 97.116 60.241 C 97.116 60.241 97.116 48.241 97.116 48.241 C 97.116 42.241 91.116 36.241 85.116 36.241 Z " fill="none" mask="url(#_mask_8koKbBhqNIrOJcmVogKid703T5VuTlqI)" vector-effect="non-scaling-stroke" stroke-width="4" stroke="rgb(86,162,216)" stroke-linejoin="miter" stroke-linecap="butt" stroke-miterlimit="4"/><g clip-path="url(#_clipPath_YkO9nv9WQGOKY9VdEXzyu2nHvGmoxfgW)"><text transform="matrix(1,0,0,1,47.056,56.741)" style="font-family:'Sansita';font-weight:400;font-size:10px;font-style:normal;font-variant-ligatures:none;fill:[Object GRGBColor];stroke:none;">get_fasta</text></g><defs><clipPath id="_clipPath_YkO9nv9WQGOKY9VdEXzyu2nHvGmoxfgW"><rect x="0" y="0" width="41" height="12.2" transform="matrix(1,0,0,1,47.056,46.541)"/></clipPath></defs></g><g><mask id="_mask_uT67LZdd6GE4AlGLp5LwkPRJLSllYq9r" x="-200%" y="-200%" width="400%" height="400%"><rect x="-200%" y="-200%" width="400%" height="400%" style="fill:white;"/><path d=" M 61.247 72.262 C 58.552 82.576 55.479 96.052 54.116 108.241 C 52.338 124.142 52.338 128.34 54.116 144.241 C 55.074 152.811 56.878 162.018 58.801 170.315" fill="black" stroke="none"/></mask><path d=" M 61.247 72.262 C 58.552 82.576 55.479 96.052 54.116 108.241 C 52.338 124.142 52.338 128.34 54.116 144.241 C 55.074 152.811 56.878 162.018 58.801 170.315" fill="none"/><path d=" M 61.247 72.262 C 58.552 82.576 55.479 96.052 54.116 108.241 C 52.338 124.142 52.338 128.34 54.116 144.241 C 55.074 152.811 56.878 162.018 58.801 170.315" fill="none" mask="url(#_mask_uT67LZdd6GE4AlGLp5LwkPRJLSllYq9r)" vector-effect="non-scaling-stroke" stroke-width="4" stroke="rgb(128,128,128)" stroke-linejoin="miter" stroke-linecap="butt" stroke-miterlimit="4"/><mask id="_mask_5odPIsZeDF5UJi94OtVA5QpaK6W0C4sl" x="-200%" y="-200%" width="400%" height="400%"><rect x="-200%" y="-200%" width="400%" height="400%" style="fill:white;"/><path d=" M 62.248 169.673 L 61.247 180.22 L 55.452 171.351 L 62.248 169.673 L 62.248 169.673 Z " fill="black" stroke="none"/></mask><path d=" M 62.248 169.673 L 61.247 180.22 L 55.452 171.351 L 62.248 169.673 L 62.248 169.673 Z " fill="rgb(128,128,128)"/><path d=" M 62.248 169.673 L 61.247 180.22 L 55.452 171.351 L 62.248 169.673 L 62.248 169.673 Z " fill="rgb(128,128,128)" mask="url(#_mask_5odPIsZeDF5UJi94OtVA5QpaK6W0C4sl)" vector-effect="non-scaling-stroke" stroke-width="4" stroke="rgb(128,128,128)" stroke-linejoin="miter" stroke-linecap="butt" stroke-miterlimit="4"/></g><g><mask id="_mask_3rawNiRa9huytoTJL6kw7mueEvCsyFc4" x="-200%" y="-200%" width="400%" height="400%"><rect x="-200%" y="-200%" width="400%" height="400%" style="fill:white;"/><path d=" M 73.779 72.544 C 77.308 80.513 81.572 90.141 85.485 98.977" fill="black" stroke="none"/></mask><path d=" M 73.779 72.544 C 77.308 80.513 81.572 90.141 85.485 98.977" fill="none"/><path d=" M 73.779 72.544 C 77.308 80.513 81.572 90.141 85.485 98.977" fill="none" mask="url(#_mask_3rawNiRa9huytoTJL6kw7mueEvCsyFc4)" vector-effect="non-scaling-stroke" stroke-width="4" stroke="rgb(128,128,128)" stroke-linejoin="miter" stroke-linecap="butt" stroke-miterlimit="4"/><mask id="_mask_3D8xOBTgs8bkqiefXvhlQeUwnEcQaq00" x="-200%" y="-200%" width="400%" height="400%"><rect x="-200%" y="-200%" width="400%" height="400%" style="fill:white;"/><path d=" M 88.692 97.576 L 89.541 108.137 L 82.292 100.41 L 88.692 97.576 L 88.692 97.576 Z " fill="black" stroke="none"/></mask><path d=" M 88.692 97.576 L 89.541 108.137 L 82.292 100.41 L 88.692 97.576 L 88.692 97.576 Z " fill="rgb(128,128,128)"/><path d=" M 88.692 97.576 L 89.541 108.137 L 82.292 100.41 L 88.692 97.576 L 88.692 97.576 Z " fill="rgb(128,128,128)" mask="url(#_mask_3D8xOBTgs8bkqiefXvhlQeUwnEcQaq00)" vector-effect="non-scaling-stroke" stroke-width="4" stroke="rgb(128,128,128)" stroke-linejoin="miter" stroke-linecap="butt" stroke-miterlimit="4"/></g><g><path d=" M 204.071 68.569 L 204.071 68.569 C 203.429 64.645 194.246 61.534 183.008 61.534 C 171.77 61.534 162.587 64.645 161.945 68.569 L 161.945 68.569 L 161.905 68.569 L 161.905 69.008 L 161.905 79.12 L 161.905 79.56 L 161.905 80 L 161.905 89.672 L 161.905 90.111 L 161.905 90.551 L 161.905 101.103 L 161.945 101.103 C 162.587 105.025 171.771 108.137 183.008 108.137 C 194.245 108.137 203.429 105.025 204.071 101.103 L 204.111 101.103 L 204.111 90.551 L 204.111 90.111 L 204.111 89.672 L 204.111 80 L 204.111 79.56 L 204.111 79.12 L 204.111 69.008 L 204.111 68.569 L 204.071 68.569 Z " fill="rgb(66,74,96)"/><g><path d=" M 183.008 97.585 C 171.353 97.585 161.905 94.239 161.905 90.111 L 161.905 101.103 L 161.945 101.103 C 162.587 105.025 171.771 108.137 183.008 108.137 C 194.245 108.137 203.429 105.025 204.071 101.103 L 204.111 101.103 L 204.111 90.111 C 204.111 94.239 194.663 97.585 183.008 97.585 Z " fill="rgb(66,74,96)"/><path d=" M 161.905 89.672 L 161.905 90.111 C 161.905 89.964 161.921 89.818 161.945 89.672 L 161.905 89.672 Z " fill="rgb(66,74,96)"/><path d=" M 204.071 89.672 C 204.095 89.818 204.111 89.964 204.111 90.111 L 204.111 89.672 L 204.071 89.672 Z " fill="rgb(66,74,96)"/></g><g><path d=" M 183.008 87.034 C 171.353 87.034 161.905 83.687 161.905 79.56 L 161.905 90.551 L 161.945 90.551 C 162.587 94.474 171.771 97.585 183.008 97.585 C 194.245 97.585 203.429 94.474 204.071 90.551 L 204.111 90.551 L 204.111 79.56 C 204.111 83.687 194.663 87.034 183.008 87.034 Z " fill="rgb(85,96,128)"/><path d=" M 161.905 79.12 L 161.905 79.56 C 161.905 79.412 161.921 79.266 161.945 79.12 L 161.905 79.12 Z " fill="rgb(85,96,128)"/><path d=" M 204.071 79.12 C 204.095 79.266 204.111 79.412 204.111 79.56 L 204.111 79.12 L 204.071 79.12 Z " fill="rgb(85,96,128)"/></g><ellipse vector-effect="non-scaling-stroke" cx="183.0079938383202" cy="69.00839459971232" rx="21.103043467348186" ry="7.473994561352484" fill="rgb(127,171,218)"/><g><path d=" M 183.008 76.482 C 171.353 76.482 161.905 73.136 161.905 69.008 L 161.905 80 L 161.945 80 C 162.587 83.922 171.771 87.034 183.008 87.034 C 194.245 87.034 203.429 83.922 204.071 80 L 204.111 80 L 204.111 69.008 C 204.111 73.136 194.663 76.482 183.008 76.482 Z " fill="rgb(115,131,191)"/><path d=" M 161.905 68.569 L 161.905 69.008 C 161.905 68.861 161.921 68.715 161.945 68.569 L 161.905 68.569 Z " fill="rgb(115,131,191)"/><path d=" M 204.071 68.569 C 204.095 68.715 204.111 68.861 204.111 69.008 L 204.111 68.569 L 204.071 68.569 Z " fill="rgb(115,131,191)"/></g></g><defs><mask id="_mask_yfvIKvuvhGAIkfxl4rCExksL0iDdaVsv"><path d="M 188.489 22.759 L 214.384 30.607 L 201.502 73.114 L 175.607 65.266 L 188.489 22.759 Z" style="stroke:black;fill:white;stroke-miterlimit:10;"/></mask><mask id="_mask_0WdqCkJqbZfCpLdLNYX7u0tqQRUo6qhy"><path d="M 188.489 22.759 L 214.384 30.607 L 201.502 73.114 L 175.607 65.266 L 188.489 22.759 Z" style="stroke:black;fill:white;stroke-miterlimit:10;"/></mask></defs><g mask="url(#_mask_0WdqCkJqbZfCpLdLNYX7u0tqQRUo6qhy)"><g mask="url(#_mask_yfvIKvuvhGAIkfxl4rCExksL0iDdaVsv)"/></g><g mask="url(#_mask_yfvIKvuvhGAIkfxl4rCExksL0iDdaVsv)"><use xlink:href="#img_yqw48nOljDlJ0UpBzq9syKFQ9I1wzwx6" transform="matrix(0.041,0.012,-0.012,0.041,188.489,22.759)" preserveAspectRatio="none" style=""/></g></g><defs><image width="636" height="1044" xlink:href="cloud://id=JAZedzxUk" id="img_yqw48nOljDlJ0UpBzq9syKFQ9I1wzwx6"/></defs></svg>