<?xml version="1.0" encoding="UTF-8" standalone="no"?>
<!DOCTYPE svg PUBLIC "-//W3C//DTD SVG 1.1//EN"
 "http://www.w3.org/Graphics/SVG/1.1/DTD/svg11.dtd">
<!-- Generated by graphviz version 2.38.0 (20140413.2041)
 -->
<!-- Title: snakemake_dag Pages: 1 -->
<svg width="162pt" height="404pt"
 viewBox="0.00 0.00 161.50 404.00" xmlns="http://www.w3.org/2000/svg" xmlns:xlink="http://www.w3.org/1999/xlink">
<g id="graph0" class="graph" transform="scale(1 1) rotate(0) translate(4 400)">
<title>snakemake_dag</title>
<polygon fill="white" stroke="none" points="-4,4 -4,-400 157.5,-400 157.5,4 -4,4"/>
<!-- 0 -->
<g id="node1" class="node"><title>0</title>
<path fill="none" stroke="#d85656" stroke-width="2" d="M91.5,-36C91.5,-36 61.5,-36 61.5,-36 55.5,-36 49.5,-30 49.5,-24 49.5,-24 49.5,-12 49.5,-12 49.5,-6 55.5,-0 61.5,-0 61.5,-0 91.5,-0 91.5,-0 97.5,-0 103.5,-6 103.5,-12 103.5,-12 103.5,-24 103.5,-24 103.5,-30 97.5,-36 91.5,-36"/>
<text text-anchor="middle" x="76.5" y="-15.5" font-family="sans" font-size="10.00">all</text>
</g>
<!-- 1 -->
<g id="node2" class="node"><title>1</title>
<path fill="none" stroke="#56d87b" stroke-width="2" stroke-dasharray="5,2" d="M101.5,-108C101.5,-108 51.5,-108 51.5,-108 45.5,-108 39.5,-102 39.5,-96 39.5,-96 39.5,-84 39.5,-84 39.5,-78 45.5,-72 51.5,-72 51.5,-72 101.5,-72 101.5,-72 107.5,-72 113.5,-78 113.5,-84 113.5,-84 113.5,-96 113.5,-96 113.5,-102 107.5,-108 101.5,-108"/>
<text text-anchor="middle" x="76.5" y="-87.5" font-family="sans" font-size="10.00">draw_graph</text>
</g>
<!-- 1&#45;&gt;0 -->
<g id="edge1" class="edge"><title>1&#45;&gt;0</title>
<path fill="none" stroke="grey" stroke-width="2" d="M76.5,-71.6966C76.5,-63.9827 76.5,-54.7125 76.5,-46.1124"/>
<polygon fill="grey" stroke="grey" stroke-width="2" points="80.0001,-46.1043 76.5,-36.1043 73.0001,-46.1044 80.0001,-46.1043"/>
</g>
<!-- 2 -->
<g id="node3" class="node"><title>2</title>
<path fill="none" stroke="#78d856" stroke-width="2" stroke-dasharray="5,2" d="M103,-180C103,-180 50,-180 50,-180 44,-180 38,-174 38,-168 38,-168 38,-156 38,-156 38,-150 44,-144 50,-144 50,-144 103,-144 103,-144 109,-144 115,-150 115,-156 115,-156 115,-168 115,-168 115,-174 109,-180 103,-180"/>
<text text-anchor="middle" x="76.5" y="-159.5" font-family="sans" font-size="10.00">get_network</text>
</g>
<!-- 2&#45;&gt;1 -->
<g id="edge2" class="edge"><title>2&#45;&gt;1</title>
<path fill="none" stroke="grey" stroke-width="2" d="M76.5,-143.697C76.5,-135.983 76.5,-126.712 76.5,-118.112"/>
<polygon fill="grey" stroke="grey" stroke-width="2" points="80.0001,-118.104 76.5,-108.104 73.0001,-118.104 80.0001,-118.104"/>
</g>
<!-- 3 -->
<g id="node4" class="node"><title>3</title>
<path fill="none" stroke="#56d8c9" stroke-width="2" stroke-dasharray="5,2" d="M55,-252C55,-252 12,-252 12,-252 6,-252 0,-246 0,-240 0,-240 0,-228 0,-228 0,-222 6,-216 12,-216 12,-216 55,-216 55,-216 61,-216 67,-222 67,-228 67,-228 67,-240 67,-240 67,-246 61,-252 55,-252"/>
<text text-anchor="middle" x="33.5" y="-231.5" font-family="sans" font-size="10.00">mash_dist</text>
</g>
<!-- 3&#45;&gt;2 -->
<g id="edge3" class="edge"><title>3&#45;&gt;2</title>
<path fill="none" stroke="grey" stroke-width="2" d="M44.1292,-215.697C49.1281,-207.559 55.191,-197.689 60.7121,-188.701"/>
<polygon fill="grey" stroke="grey" stroke-width="2" points="63.7411,-190.457 65.9931,-180.104 57.7766,-186.793 63.7411,-190.457"/>
</g>
<!-- 4 -->
<g id="node5" class="node"><title>4</title>
<path fill="none" stroke="#c6d856" stroke-width="2" stroke-dasharray="5,2" d="M141.5,-252C141.5,-252 97.5,-252 97.5,-252 91.5,-252 85.5,-246 85.5,-240 85.5,-240 85.5,-228 85.5,-228 85.5,-222 91.5,-216 97.5,-216 97.5,-216 141.5,-216 141.5,-216 147.5,-216 153.5,-222 153.5,-228 153.5,-228 153.5,-240 153.5,-240 153.5,-246 147.5,-252 141.5,-252"/>
<text text-anchor="middle" x="119.5" y="-231.5" font-family="sans" font-size="10.00">annot_dict</text>
</g>
<!-- 4&#45;&gt;2 -->
<g id="edge4" class="edge"><title>4&#45;&gt;2</title>
<path fill="none" stroke="grey" stroke-width="2" d="M108.871,-215.697C103.872,-207.559 97.809,-197.689 92.2879,-188.701"/>
<polygon fill="grey" stroke="grey" stroke-width="2" points="95.2234,-186.793 87.0069,-180.104 89.2589,-190.457 95.2234,-186.793"/>
</g>
<!-- 5 -->
<g id="node6" class="node"><title>5</title>
<path fill="none" stroke="#d8a456" stroke-width="2" stroke-dasharray="5,2" d="M86.5,-324C86.5,-324 42.5,-324 42.5,-324 36.5,-324 30.5,-318 30.5,-312 30.5,-312 30.5,-300 30.5,-300 30.5,-294 36.5,-288 42.5,-288 42.5,-288 86.5,-288 86.5,-288 92.5,-288 98.5,-294 98.5,-300 98.5,-300 98.5,-312 98.5,-312 98.5,-318 92.5,-324 86.5,-324"/>
<text text-anchor="middle" x="64.5" y="-303.5" font-family="sans" font-size="10.00">ref_sketch</text>
</g>
<!-- 5&#45;&gt;3 -->
<g id="edge5" class="edge"><title>5&#45;&gt;3</title>
<path fill="none" stroke="grey" stroke-width="2" d="M56.8371,-287.697C53.3083,-279.728 49.0441,-270.1 45.1313,-261.264"/>
<polygon fill="grey" stroke="grey" stroke-width="2" points="48.3243,-259.831 41.0748,-252.104 41.9239,-262.665 48.3243,-259.831"/>
</g>
<!-- 6 -->
<g id="node7" class="node"><title>6</title>
<path fill="none" stroke="#56a2d8" stroke-width="2" stroke-dasharray="5,2" d="M52.5,-396C52.5,-396 14.5,-396 14.5,-396 8.5,-396 2.5,-390 2.5,-384 2.5,-384 2.5,-372 2.5,-372 2.5,-366 8.5,-360 14.5,-360 14.5,-360 52.5,-360 52.5,-360 58.5,-360 64.5,-366 64.5,-372 64.5,-372 64.5,-384 64.5,-384 64.5,-390 58.5,-396 52.5,-396"/>
<text text-anchor="middle" x="33.5" y="-375.5" font-family="sans" font-size="10.00">get_fasta</text>
</g>
<!-- 6&#45;&gt;3 -->
<g id="edge6" class="edge"><title>6&#45;&gt;3</title>
<path fill="none" stroke="grey" stroke-width="2" d="M28.6309,-359.979C25.9358,-349.665 22.8626,-336.189 21.5,-324 19.7224,-308.099 19.7224,-303.901 21.5,-288 22.4581,-279.43 24.2618,-270.223 26.1852,-261.926"/>
<polygon fill="grey" stroke="grey" stroke-width="2" points="29.6318,-262.568 28.6309,-252.021 22.8358,-260.89 29.6318,-262.568"/>
</g>
<!-- 6&#45;&gt;5 -->
<g id="edge7" class="edge"><title>6&#45;&gt;5</title>
<path fill="none" stroke="grey" stroke-width="2" d="M41.1629,-359.697C44.6917,-351.728 48.9559,-342.1 52.8687,-333.264"/>
<polygon fill="grey" stroke="grey" stroke-width="2" points="56.0761,-334.665 56.9252,-324.104 49.6757,-331.831 56.0761,-334.665"/>
</g>
</g>
</svg>
